<svg width="512" height="512" viewBox="0 0 512 512" fill="none" xmlns="http://www.w3.org/2000/svg">
<rect width="512" height="512" rx="100" fill="white"/>
<rect width="512" height="512" rx="100" fill="url(#paint0_linear_37_144)"/>
<path opacity="0.4" d="M233.177 463.227C427.803 499.264 405.339 301.085 170.094 135.134C-65.1501 -30.8172 38.5518 427.191 233.177 463.227Z" fill="#66C0B3" stroke="#66C0B3"/>
<path opacity="0.6" d="M194.072 437.147C343.419 546.424 443.518 352.058 337.022 105.317C230.527 -141.423 44.7255 327.869 194.072 437.147Z" fill="#009681"/>
<path opacity="0.9" d="M348.584 454.721C166.754 521.483 139.927 323.66 329.542 123.033C519.157 -77.5935 530.415 387.96 348.584 454.721Z" fill="#005A4D"/>
<path d="M251.08 374.02C239.427 374.02 228.923 373.177 219.57 371.49C210.37 369.957 202.55 366.89 196.11 362.29C189.67 357.843 184.763 351.25 181.39 342.51C178.017 333.77 176.33 322.347 176.33 308.24C176.33 297.967 176.867 287.31 177.94 276.27C179.013 265.23 180.317 254.573 181.85 244.3C183.537 233.873 185.147 224.597 186.68 216.47C183.613 216.93 181.007 217.39 178.86 217.85L174.49 181.28C182.003 179.9 190.667 178.75 200.48 177.83C210.447 176.757 220.95 175.837 231.99 175.07C243.183 174.303 254.3 173.767 265.34 173.46C276.38 173 286.73 172.77 296.39 172.77C304.057 172.77 311.033 172.923 317.32 173.23C323.76 173.383 329.05 173.69 333.19 174.15L331.35 212.56C327.21 211.793 321.613 211.257 314.56 210.95C307.507 210.49 299.61 210.26 290.87 210.26C280.597 210.26 269.633 210.49 257.98 210.95C246.327 211.41 235.21 211.947 224.63 212.56C223.403 219 222.33 225.593 221.41 232.34C220.49 239.087 219.647 245.757 218.88 252.35C227.773 251.123 237.51 250.203 248.09 249.59C258.823 248.823 269.48 248.287 280.06 247.98C290.64 247.52 300.147 247.29 308.58 247.29C313.487 247.29 317.857 247.367 321.69 247.52C325.523 247.52 328.667 247.673 331.12 247.98L330.2 285.7C328.207 285.547 325.447 285.47 321.92 285.47C318.547 285.317 314.56 285.24 309.96 285.24C303.367 285.24 296.007 285.393 287.88 285.7C279.753 285.853 271.32 286.16 262.58 286.62C253.993 286.927 245.637 287.387 237.51 288C229.383 288.46 222.023 289.073 215.43 289.84C214.817 298.427 214.51 305.327 214.51 310.54C214.51 318.053 215.507 323.573 217.5 327.1C219.493 330.627 222.79 332.927 227.39 334C232.143 334.92 238.353 335.38 246.02 335.38C259.667 335.38 274.31 334.23 289.95 331.93C305.743 329.63 321.307 326.027 336.64 321.12L339.17 361.14C320.77 366.2 304.057 369.573 289.03 371.26C274.157 373.1 261.507 374.02 251.08 374.02Z" fill="white"/>
<defs>
<linearGradient id="paint0_linear_37_144" x1="256" y1="503.5" x2="256" y2="211.5" gradientUnits="userSpaceOnUse">
<stop stop-opacity="0.2"/>
<stop offset="1" stop-color="white" stop-opacity="0"/>
</linearGradient>
</defs>
</svg>
